<mxfile host="app.diagrams.net" modified="2023-05-08T18:23:53.743Z" agent="Mozilla/5.0 (X11; Linux x86_64) AppleWebKit/537.36 (KHTML, like Gecko) Chrome/113.0.0.0 Safari/537.36" etag="2XN5Uv7X6E6ZVQpw5ES8" version="21.2.9" type="device">
  <diagram id="WI9T0HZ2pTsCkuznbFz-" name="Page-1">
    <mxGraphModel dx="2605" dy="1518" grid="1" gridSize="10" guides="1" tooltips="1" connect="1" arrows="1" fold="1" page="1" pageScale="1" pageWidth="2336" pageHeight="1654" background="none" math="0" shadow="0">
      <root>
        <mxCell id="0" />
        <mxCell id="1" parent="0" />
        <mxCell id="74" value="&lt;font style=&quot;font-size: 20px&quot;&gt;Cloud&lt;/font&gt;" style="verticalLabelPosition=bottom;html=1;verticalAlign=top;align=center;strokeColor=none;fillColor=#00BEF2;shape=mxgraph.azure.cloud;fontSize=15;" parent="1" vertex="1">
          <mxGeometry x="1720" y="1293.5" width="180" height="116" as="geometry" />
        </mxCell>
        <mxCell id="y9RzSom0SDrukG8L002s-198" style="edgeStyle=orthogonalEdgeStyle;rounded=0;orthogonalLoop=1;jettySize=auto;html=1;exitX=1;exitY=0.71;exitDx=0;exitDy=0;exitPerimeter=0;entryX=0;entryY=0.75;entryDx=0;entryDy=0;fontSize=24;" parent="1" source="2" target="30" edge="1">
          <mxGeometry relative="1" as="geometry" />
        </mxCell>
        <mxCell id="2" value="&lt;font style=&quot;font-size: 14px&quot;&gt;user&lt;/font&gt;" style="points=[[0.35,0,0],[0.98,0.51,0],[1,0.71,0],[0.67,1,0],[0,0.795,0],[0,0.65,0]];verticalLabelPosition=bottom;sketch=0;html=1;verticalAlign=top;aspect=fixed;align=center;pointerEvents=1;shape=mxgraph.cisco19.user;fillColor=#005073;strokeColor=none;" parent="1" vertex="1">
          <mxGeometry x="40.5" y="1000.9000000000001" width="110" height="110" as="geometry" />
        </mxCell>
        <mxCell id="3" value="Github&lt;br&gt;" style="dashed=0;outlineConnect=0;html=1;align=center;labelPosition=center;verticalLabelPosition=bottom;verticalAlign=top;shape=mxgraph.weblogos.github;fontSize=14;" parent="1" vertex="1">
          <mxGeometry x="350" y="1029" width="60" height="60" as="geometry" />
        </mxCell>
        <mxCell id="rCrPeNMefCEBVP25DHqw-241" style="edgeStyle=orthogonalEdgeStyle;rounded=0;orthogonalLoop=1;jettySize=auto;html=1;dashed=1;dashPattern=8 8;" edge="1" parent="1" source="11" target="rCrPeNMefCEBVP25DHqw-215">
          <mxGeometry relative="1" as="geometry" />
        </mxCell>
        <mxCell id="rCrPeNMefCEBVP25DHqw-247" style="edgeStyle=orthogonalEdgeStyle;rounded=0;orthogonalLoop=1;jettySize=auto;html=1;exitX=0;exitY=0.75;exitDx=0;exitDy=0;exitPerimeter=0;entryX=0.5;entryY=1;entryDx=0;entryDy=0;entryPerimeter=0;" edge="1" parent="1" source="11" target="rCrPeNMefCEBVP25DHqw-217">
          <mxGeometry relative="1" as="geometry" />
        </mxCell>
        <mxCell id="rCrPeNMefCEBVP25DHqw-269" style="edgeStyle=orthogonalEdgeStyle;rounded=0;orthogonalLoop=1;jettySize=auto;html=1;" edge="1" parent="1" source="rCrPeNMefCEBVP25DHqw-270" target="74">
          <mxGeometry relative="1" as="geometry" />
        </mxCell>
        <object placeholders="1" c4Type="cd-service" c4Container="cd-service" c4Technology="go/ kafka/" c4Description="continuous delivery" label="&lt;font style=&quot;font-size: 16px&quot;&gt;&lt;b&gt;%c4Type%&lt;/font&gt;&lt;div&gt;[%c4Container%:&amp;nbsp;%c4Technology%]&lt;/div&gt;&lt;br&gt;&lt;div&gt;&lt;font style=&quot;font-size: 11px&quot;&gt;&lt;font color=&quot;#E6E6E6&quot;&gt;%c4Description%&lt;/font&gt;&lt;/div&gt;" id="11">
          <mxCell style="shape=hexagon;size=-200;perimeter=hexagonPerimeter2;whiteSpace=wrap;html=1;fixedSize=1;rounded=1;labelBackgroundColor=none;fillColor=#23A2D9;fontSize=12;fontColor=#ffffff;align=center;strokeColor=#0E7DAD;metaEdit=1;points=[[0.5,0,0],[1,0.25,0],[1,0.5,0],[1,0.75,0],[0.5,1,0],[0,0.75,0],[0,0.5,0],[0,0.25,0]];resizable=0;" parent="1" vertex="1">
            <mxGeometry x="1710" y="975.9" width="200" height="170" as="geometry" />
          </mxCell>
        </object>
        <mxCell id="rCrPeNMefCEBVP25DHqw-253" style="rounded=0;orthogonalLoop=1;jettySize=auto;html=1;entryX=1;entryY=0.5;entryDx=0;entryDy=0;entryPerimeter=0;edgeStyle=orthogonalEdgeStyle;elbow=vertical;curved=1;dashed=1;" edge="1" parent="1" source="14" target="11">
          <mxGeometry relative="1" as="geometry" />
        </mxCell>
        <mxCell id="14" value="Private Image Registry" style="aspect=fixed;html=1;points=[];align=center;image;fontSize=12;image=img/lib/azure2/compute/Shared_Image_Galleries.svg;" parent="1" vertex="1">
          <mxGeometry x="2140" y="706" width="64" height="64" as="geometry" />
        </mxCell>
        <mxCell id="rCrPeNMefCEBVP25DHqw-192" value="" style="edgeStyle=orthogonalEdgeStyle;rounded=0;orthogonalLoop=1;jettySize=auto;html=1;entryX=0.5;entryY=1;entryDx=0;entryDy=0;" edge="1" parent="1" source="rCrPeNMefCEBVP25DHqw-201" target="rCrPeNMefCEBVP25DHqw-193">
          <mxGeometry relative="1" as="geometry">
            <mxPoint x="780" y="779" as="targetPoint" />
          </mxGeometry>
        </mxCell>
        <mxCell id="rCrPeNMefCEBVP25DHqw-196" value="" style="edgeStyle=orthogonalEdgeStyle;rounded=0;orthogonalLoop=1;jettySize=auto;html=1;" edge="1" parent="1" source="rCrPeNMefCEBVP25DHqw-203" target="rCrPeNMefCEBVP25DHqw-195">
          <mxGeometry relative="1" as="geometry" />
        </mxCell>
        <mxCell id="rCrPeNMefCEBVP25DHqw-198" style="edgeStyle=orthogonalEdgeStyle;rounded=0;orthogonalLoop=1;jettySize=auto;html=1;exitX=1;exitY=0.25;exitDx=0;exitDy=0;exitPerimeter=0;entryX=0;entryY=0.5;entryDx=0;entryDy=0;entryPerimeter=0;" edge="1" parent="1" source="rCrPeNMefCEBVP25DHqw-199" target="rCrPeNMefCEBVP25DHqw-190">
          <mxGeometry relative="1" as="geometry" />
        </mxCell>
        <object placeholders="1" c4Type="api-gateway" c4Container="api-gateway" c4Technology="golang - mongodb - gin" c4Description="responsible for talking to the system " label="&lt;font style=&quot;font-size: 16px&quot;&gt;&lt;b&gt;%c4Type%&lt;/font&gt;&lt;div&gt;[%c4Container%:&amp;nbsp;%c4Technology%]&lt;/div&gt;&lt;br&gt;&lt;div&gt;&lt;font style=&quot;font-size: 11px&quot;&gt;&lt;font color=&quot;#E6E6E6&quot;&gt;%c4Description%&lt;/font&gt;&lt;/div&gt;" id="22">
          <mxCell style="shape=hexagon;size=-110;perimeter=hexagonPerimeter2;whiteSpace=wrap;html=1;fixedSize=1;rounded=1;labelBackgroundColor=none;fillColor=#23A2D9;fontSize=12;fontColor=#ffffff;align=center;strokeColor=#0E7DAD;metaEdit=1;points=[[0.5,0,0],[1,0.25,0],[1,0.5,0],[1,0.75,0],[0.5,1,0],[0,0.75,0],[0,0.5,0],[0,0.25,0]];resizable=0;" parent="1" vertex="1">
            <mxGeometry x="680" y="859" width="200" height="170" as="geometry" />
          </mxCell>
        </object>
        <mxCell id="rCrPeNMefCEBVP25DHqw-240" style="edgeStyle=orthogonalEdgeStyle;rounded=0;orthogonalLoop=1;jettySize=auto;html=1;dashed=1;dashPattern=8 8;" edge="1" parent="1" source="24" target="rCrPeNMefCEBVP25DHqw-215">
          <mxGeometry relative="1" as="geometry" />
        </mxCell>
        <mxCell id="rCrPeNMefCEBVP25DHqw-248" style="edgeStyle=orthogonalEdgeStyle;rounded=0;orthogonalLoop=1;jettySize=auto;html=1;exitX=0;exitY=0.5;exitDx=0;exitDy=0;exitPerimeter=0;entryX=1;entryY=0.5;entryDx=0;entryDy=0;entryPerimeter=0;" edge="1" parent="1" source="24" target="rCrPeNMefCEBVP25DHqw-217">
          <mxGeometry relative="1" as="geometry">
            <Array as="points">
              <mxPoint x="1710" y="820" />
              <mxPoint x="1610" y="820" />
              <mxPoint x="1610" y="961" />
            </Array>
          </mxGeometry>
        </mxCell>
        <mxCell id="rCrPeNMefCEBVP25DHqw-250" style="edgeStyle=orthogonalEdgeStyle;rounded=0;orthogonalLoop=1;jettySize=auto;html=1;" edge="1" parent="1" source="24" target="14">
          <mxGeometry relative="1" as="geometry" />
        </mxCell>
        <object placeholders="1" c4Type="ci-server" c4Container="ci-service" c4Technology="go-docker/kafka" c4Description="This is the CI server Responsible for Building images And pushing them to image registries and testing" label="&lt;font style=&quot;font-size: 16px&quot;&gt;&lt;b&gt;%c4Type%&lt;/font&gt;&lt;div&gt;[%c4Container%:&amp;nbsp;%c4Technology%]&lt;/div&gt;&lt;br&gt;&lt;div&gt;&lt;font style=&quot;font-size: 11px&quot;&gt;&lt;font color=&quot;#E6E6E6&quot;&gt;%c4Description%&lt;/font&gt;&lt;/div&gt;" id="24">
          <mxCell style="shape=hexagon;size=-240;perimeter=hexagonPerimeter2;whiteSpace=wrap;html=1;fixedSize=1;rounded=1;labelBackgroundColor=none;fillColor=#23A2D9;fontSize=12;fontColor=#ffffff;align=center;strokeColor=#0E7DAD;metaEdit=1;points=[[0.5,0,0],[1,0.25,0],[1,0.5,0],[1,0.75,0],[0.5,1,0],[0,0.75,0],[0,0.5,0],[0,0.25,0]];resizable=0;" parent="1" vertex="1">
            <mxGeometry x="1710" y="690.45" width="200" height="170" as="geometry" />
          </mxCell>
        </object>
        <mxCell id="rCrPeNMefCEBVP25DHqw-229" value="" style="edgeStyle=orthogonalEdgeStyle;rounded=0;orthogonalLoop=1;jettySize=auto;html=1;" edge="1" parent="1" source="30" target="3">
          <mxGeometry relative="1" as="geometry" />
        </mxCell>
        <mxCell id="30" value="&lt;font style=&quot;font-size: 16px&quot;&gt;Push/Merge&lt;/font&gt;" style="html=1;rounded=1;absoluteArcSize=1;arcSize=10;gradientColor=#2B2B2B;" parent="1" vertex="1">
          <mxGeometry x="198.45" y="1040.9" width="80" height="30" as="geometry" />
        </mxCell>
        <mxCell id="rCrPeNMefCEBVP25DHqw-238" style="edgeStyle=orthogonalEdgeStyle;rounded=0;orthogonalLoop=1;jettySize=auto;html=1;entryX=1;entryY=0;entryDx=0;entryDy=0;dashed=1;dashPattern=8 8;" edge="1" parent="1" source="68" target="rCrPeNMefCEBVP25DHqw-215">
          <mxGeometry relative="1" as="geometry" />
        </mxCell>
        <mxCell id="rCrPeNMefCEBVP25DHqw-249" style="edgeStyle=orthogonalEdgeStyle;rounded=0;orthogonalLoop=1;jettySize=auto;html=1;exitX=0;exitY=0.75;exitDx=0;exitDy=0;exitPerimeter=0;entryX=1;entryY=0.25;entryDx=0;entryDy=0;entryPerimeter=0;" edge="1" parent="1" source="68" target="rCrPeNMefCEBVP25DHqw-217">
          <mxGeometry relative="1" as="geometry">
            <Array as="points">
              <mxPoint x="1670" y="527" />
              <mxPoint x="1670" y="918" />
            </Array>
          </mxGeometry>
        </mxCell>
        <mxCell id="rCrPeNMefCEBVP25DHqw-259" value="" style="edgeStyle=orthogonalEdgeStyle;rounded=0;orthogonalLoop=1;jettySize=auto;html=1;" edge="1" parent="1" source="68" target="rCrPeNMefCEBVP25DHqw-258">
          <mxGeometry relative="1" as="geometry" />
        </mxCell>
        <object placeholders="1" c4Type="cloud-mgmt" c4Container="cloud-mgmt" c4Technology="Go/kafla/grpc" c4Description="this microservice is responsible for automating kubernetes-as-a-service and talking to your vmware infrastructure or cloud provider for automation" label="&lt;font style=&quot;font-size: 16px&quot;&gt;&lt;b&gt;%c4Type%&lt;/font&gt;&lt;div&gt;[%c4Container%:&amp;nbsp;%c4Technology%]&lt;/div&gt;&lt;br&gt;&lt;div&gt;&lt;font style=&quot;font-size: 11px&quot;&gt;&lt;font color=&quot;#E6E6E6&quot;&gt;%c4Description%&lt;/font&gt;&lt;/div&gt;" github-repo="https://github.com/miladhzzzz/milx-cloud-api/theye" id="68">
          <mxCell style="shape=hexagon;size=-269.99999999999955;perimeter=hexagonPerimeter2;whiteSpace=wrap;html=1;fixedSize=1;rounded=1;labelBackgroundColor=none;fillColor=#23A2D9;fontSize=12;fontColor=#ffffff;align=center;strokeColor=#0E7DAD;metaEdit=1;points=[[0.5,0,0],[1,0.25,0],[1,0.5,0],[1,0.75,0],[0.5,1,0],[0,0.75,0],[0,0.5,0],[0,0.25,0]];resizable=0;" parent="1" vertex="1">
            <mxGeometry x="1710" y="414.54999999999995" width="200" height="170" as="geometry" />
          </mxCell>
        </object>
        <mxCell id="147" value="CLI-client&lt;br&gt;Shipper-CLI" style="sketch=0;pointerEvents=1;shadow=0;dashed=0;html=1;strokeColor=none;fillColor=#005F4B;labelPosition=center;verticalLabelPosition=bottom;verticalAlign=top;align=center;outlineConnect=0;shape=mxgraph.veeam2.command_line;labelBackgroundColor=none;fontSize=20;fontColor=#FFFFFF;" parent="1" vertex="1">
          <mxGeometry x="41.75" y="1243.5" width="107.5" height="100" as="geometry" />
        </mxCell>
        <mxCell id="rCrPeNMefCEBVP25DHqw-233" value="" style="edgeStyle=orthogonalEdgeStyle;rounded=0;orthogonalLoop=1;jettySize=auto;html=1;" edge="1" parent="1" source="150" target="3">
          <mxGeometry relative="1" as="geometry">
            <mxPoint x="380" y="889.5500000000002" as="targetPoint" />
          </mxGeometry>
        </mxCell>
        <object placeholders="1" c4Type="Backstage by Spotify" c4Container="Backstage" c4Technology="Typescript , React" c4Description="Microservice Catalouge / Developer Portal / Monitoring / Service Discovery" label="&lt;font style=&quot;font-size: 16px&quot;&gt;&lt;b&gt;%c4Type%&lt;/font&gt;&lt;div&gt;[%c4Container%:&amp;nbsp;%c4Technology%]&lt;/div&gt;&lt;br&gt;&lt;div&gt;&lt;font style=&quot;font-size: 11px&quot;&gt;&lt;font color=&quot;#E6E6E6&quot;&gt;%c4Description%&lt;/font&gt;&lt;/div&gt;" github-repo="https://github.com/spotify/backstage" id="150">
          <mxCell style="shape=hexagon;size=-190;perimeter=hexagonPerimeter2;whiteSpace=wrap;html=1;fixedSize=1;rounded=1;labelBackgroundColor=none;fillColor=#23A2D9;fontSize=12;fontColor=#ffffff;align=center;strokeColor=#0E7DAD;metaEdit=1;points=[[0.5,0,0],[1,0.25,0],[1,0.5,0],[1,0.75,0],[0.5,1,0],[0,0.75,0],[0,0.5,0],[0,0.25,0]];resizable=0;" parent="1" vertex="1">
            <mxGeometry x="280" y="584.55" width="200" height="170" as="geometry" />
          </mxCell>
        </object>
        <mxCell id="188" value="&lt;font style=&quot;font-size: 20px&quot;&gt;SDN&lt;/font&gt;" style="shape=hexagon;size=-278;perimeter=hexagonPerimeter2;whiteSpace=wrap;html=1;fixedSize=1;rounded=1;labelBackgroundColor=none;fillColor=#23A2D9;fontSize=12;fontColor=#ffffff;align=center;strokeColor=#0E7DAD;metaEdit=1;points=[[0.5,0,0],[1,0.25,0],[1,0.5,0],[1,0.75,0],[0.5,1,0],[0,0.75,0],[0,0.5,0],[0,0.25,0]];resizable=0;" parent="1" vertex="1">
          <mxGeometry x="1030" y="52.3" width="112" height="114.5" as="geometry" />
        </mxCell>
        <mxCell id="rCrPeNMefCEBVP25DHqw-261" style="edgeStyle=orthogonalEdgeStyle;rounded=0;orthogonalLoop=1;jettySize=auto;html=1;" edge="1" parent="1" source="y9RzSom0SDrukG8L002s-189" target="188">
          <mxGeometry relative="1" as="geometry" />
        </mxCell>
        <mxCell id="y9RzSom0SDrukG8L002s-189" value="&lt;font style=&quot;font-size: 24px;&quot;&gt;Persys-Datacenter&lt;/font&gt;" style="sketch=0;aspect=fixed;html=1;points=[];align=center;image;fontSize=12;image=img/lib/mscae/Virtual_Datacenter.svg;" parent="1" vertex="1">
          <mxGeometry x="1375" y="54.55" width="110" height="110" as="geometry" />
        </mxCell>
        <mxCell id="rCrPeNMefCEBVP25DHqw-218" value="" style="edgeStyle=orthogonalEdgeStyle;rounded=0;orthogonalLoop=1;jettySize=auto;html=1;" edge="1" parent="1" source="rCrPeNMefCEBVP25DHqw-219" target="rCrPeNMefCEBVP25DHqw-217">
          <mxGeometry relative="1" as="geometry" />
        </mxCell>
        <mxCell id="rCrPeNMefCEBVP25DHqw-228" style="edgeStyle=orthogonalEdgeStyle;rounded=0;orthogonalLoop=1;jettySize=auto;html=1;entryX=0;entryY=0.5;entryDx=0;entryDy=0;" edge="1" parent="1" source="rCrPeNMefCEBVP25DHqw-190" target="rCrPeNMefCEBVP25DHqw-215">
          <mxGeometry relative="1" as="geometry" />
        </mxCell>
        <mxCell id="rCrPeNMefCEBVP25DHqw-278" value="" style="edgeStyle=orthogonalEdgeStyle;rounded=0;orthogonalLoop=1;jettySize=auto;html=1;" edge="1" parent="1" source="rCrPeNMefCEBVP25DHqw-190" target="rCrPeNMefCEBVP25DHqw-277">
          <mxGeometry relative="1" as="geometry" />
        </mxCell>
        <object placeholders="1" c4Type="events-manager" c4Container="events-amanger" c4Technology="golang - mongodb - kafka" c4Description="event aggregation layer and controller" label="&lt;font style=&quot;font-size: 16px&quot;&gt;&lt;b&gt;%c4Type%&lt;/font&gt;&lt;div&gt;[%c4Container%:&amp;nbsp;%c4Technology%]&lt;/div&gt;&lt;br&gt;&lt;div&gt;&lt;font style=&quot;font-size: 11px&quot;&gt;&lt;font color=&quot;#E6E6E6&quot;&gt;%c4Description%&lt;/font&gt;&lt;/div&gt;" id="rCrPeNMefCEBVP25DHqw-190">
          <mxCell style="shape=hexagon;size=-110;perimeter=hexagonPerimeter2;whiteSpace=wrap;html=1;fixedSize=1;rounded=1;labelBackgroundColor=none;fillColor=#23A2D9;fontSize=12;fontColor=#ffffff;align=center;strokeColor=#0E7DAD;metaEdit=1;points=[[0.5,0,0],[1,0.25,0],[1,0.5,0],[1,0.75,0],[0.5,1,0],[0,0.75,0],[0,0.5,0],[0,0.25,0]];resizable=0;" vertex="1" parent="1">
            <mxGeometry x="1090" y="600.0000000000001" width="200" height="170" as="geometry" />
          </mxCell>
        </object>
        <mxCell id="rCrPeNMefCEBVP25DHqw-193" value="&lt;font size=&quot;3&quot;&gt;Auth-service&lt;/font&gt;" style="whiteSpace=wrap;html=1;fillColor=#23A2D9;strokeColor=#0E7DAD;fontColor=#ffffff;rounded=1;labelBackgroundColor=none;" vertex="1" parent="1">
          <mxGeometry x="580" y="670" width="120" height="60" as="geometry" />
        </mxCell>
        <mxCell id="rCrPeNMefCEBVP25DHqw-195" value="&lt;font size=&quot;3&quot;&gt;audit Log&lt;br&gt;(ELK)&lt;br&gt;&lt;/font&gt;" style="whiteSpace=wrap;html=1;fillColor=#23A2D9;strokeColor=#0E7DAD;fontColor=#ffffff;rounded=1;labelBackgroundColor=none;" vertex="1" parent="1">
          <mxGeometry x="880" y="1110" width="120" height="60" as="geometry" />
        </mxCell>
        <mxCell id="rCrPeNMefCEBVP25DHqw-200" value="" style="edgeStyle=orthogonalEdgeStyle;rounded=0;orthogonalLoop=1;jettySize=auto;html=1;exitX=1;exitY=0.25;exitDx=0;exitDy=0;exitPerimeter=0;entryX=0;entryY=0.5;entryDx=0;entryDy=0;entryPerimeter=0;" edge="1" parent="1" source="22" target="rCrPeNMefCEBVP25DHqw-199">
          <mxGeometry relative="1" as="geometry">
            <mxPoint x="880" y="902" as="sourcePoint" />
            <mxPoint x="1090" y="685" as="targetPoint" />
          </mxGeometry>
        </mxCell>
        <mxCell id="rCrPeNMefCEBVP25DHqw-199" value="&lt;span style=&quot;font-size: 16px;&quot;&gt;gRPC&lt;/span&gt;" style="html=1;rounded=1;absoluteArcSize=1;arcSize=10;gradientColor=#2B2B2B;" vertex="1" parent="1">
          <mxGeometry x="940" y="754.5500000000001" width="80" height="30" as="geometry" />
        </mxCell>
        <mxCell id="rCrPeNMefCEBVP25DHqw-202" value="" style="edgeStyle=orthogonalEdgeStyle;rounded=0;orthogonalLoop=1;jettySize=auto;html=1;entryX=0.5;entryY=1;entryDx=0;entryDy=0;" edge="1" parent="1" source="22" target="rCrPeNMefCEBVP25DHqw-201">
          <mxGeometry relative="1" as="geometry">
            <mxPoint x="780" y="859" as="sourcePoint" />
            <mxPoint x="780" y="724" as="targetPoint" />
          </mxGeometry>
        </mxCell>
        <mxCell id="rCrPeNMefCEBVP25DHqw-201" value="&lt;span style=&quot;font-size: 16px;&quot;&gt;gRPC&lt;/span&gt;" style="html=1;rounded=1;absoluteArcSize=1;arcSize=10;gradientColor=#2B2B2B;" vertex="1" parent="1">
          <mxGeometry x="740" y="760.45" width="80" height="30" as="geometry" />
        </mxCell>
        <mxCell id="rCrPeNMefCEBVP25DHqw-204" value="" style="edgeStyle=orthogonalEdgeStyle;rounded=0;orthogonalLoop=1;jettySize=auto;html=1;" edge="1" parent="1" source="22" target="rCrPeNMefCEBVP25DHqw-203">
          <mxGeometry relative="1" as="geometry">
            <mxPoint x="880" y="944" as="sourcePoint" />
            <mxPoint x="1000" y="944" as="targetPoint" />
          </mxGeometry>
        </mxCell>
        <mxCell id="rCrPeNMefCEBVP25DHqw-203" value="&lt;span style=&quot;font-size: 16px;&quot;&gt;gRPC&lt;/span&gt;" style="html=1;rounded=1;absoluteArcSize=1;arcSize=10;gradientColor=#2B2B2B;" vertex="1" parent="1">
          <mxGeometry x="900" y="929" width="80" height="30" as="geometry" />
        </mxCell>
        <mxCell id="rCrPeNMefCEBVP25DHqw-205" style="edgeStyle=orthogonalEdgeStyle;rounded=0;orthogonalLoop=1;jettySize=auto;html=1;exitX=0.25;exitY=1;exitDx=0;exitDy=0;entryX=0.5;entryY=1;entryDx=0;entryDy=0;" edge="1" parent="1" source="rCrPeNMefCEBVP25DHqw-203" target="rCrPeNMefCEBVP25DHqw-203">
          <mxGeometry relative="1" as="geometry" />
        </mxCell>
        <mxCell id="rCrPeNMefCEBVP25DHqw-210" value="&lt;font style=&quot;font-size: 20px&quot;&gt;HTTP/REST&lt;br&gt;&lt;/font&gt;" style="edgeLabel;html=1;align=center;verticalAlign=middle;resizable=0;points=[];fontSize=15;" vertex="1" connectable="0" parent="1">
          <mxGeometry x="479.9996689224404" y="1280.0020102954277" as="geometry" />
        </mxCell>
        <mxCell id="rCrPeNMefCEBVP25DHqw-236" value="" style="edgeStyle=orthogonalEdgeStyle;rounded=0;orthogonalLoop=1;jettySize=auto;html=1;" edge="1" parent="1" source="rCrPeNMefCEBVP25DHqw-211" target="rCrPeNMefCEBVP25DHqw-190">
          <mxGeometry relative="1" as="geometry" />
        </mxCell>
        <mxCell id="rCrPeNMefCEBVP25DHqw-211" value="&lt;font style=&quot;font-size: 18px;&quot;&gt;Controller&lt;/font&gt;" style="whiteSpace=wrap;html=1;fillColor=#23A2D9;strokeColor=#0E7DAD;fontColor=#ffffff;rounded=1;labelBackgroundColor=none;" vertex="1" parent="1">
          <mxGeometry x="1130" y="470.0000000000001" width="120" height="60" as="geometry" />
        </mxCell>
        <mxCell id="rCrPeNMefCEBVP25DHqw-215" value="&lt;font size=&quot;3&quot;&gt;Kafka Topics&lt;/font&gt;" style="rhombus;whiteSpace=wrap;html=1;fillColor=#23A2D9;strokeColor=#0E7DAD;fontColor=#ffffff;rounded=1;labelBackgroundColor=none;" vertex="1" parent="1">
          <mxGeometry x="1450" y="645" width="120" height="145" as="geometry" />
        </mxCell>
        <object placeholders="1" c4Type="blob-service" c4Container="blob-service" c4Technology="golang - gin - http" c4Description="an in-cluster stateless blob storage" label="&lt;font style=&quot;font-size: 16px&quot;&gt;&lt;b&gt;%c4Type%&lt;/font&gt;&lt;div&gt;[%c4Container%:&amp;nbsp;%c4Technology%]&lt;/div&gt;&lt;br&gt;&lt;div&gt;&lt;font style=&quot;font-size: 11px&quot;&gt;&lt;font color=&quot;#E6E6E6&quot;&gt;%c4Description%&lt;/font&gt;&lt;/div&gt;" id="rCrPeNMefCEBVP25DHqw-217">
          <mxCell style="shape=hexagon;size=-110;perimeter=hexagonPerimeter2;whiteSpace=wrap;html=1;fixedSize=1;rounded=1;labelBackgroundColor=none;fillColor=#23A2D9;fontSize=12;fontColor=#ffffff;align=center;strokeColor=#0E7DAD;metaEdit=1;points=[[0.5,0,0],[1,0.25,0],[1,0.5,0],[1,0.75,0],[0.5,1,0],[0,0.75,0],[0,0.5,0],[0,0.25,0]];resizable=0;" vertex="1" parent="1">
            <mxGeometry x="1160" y="875.9000000000002" width="200" height="170" as="geometry" />
          </mxCell>
        </object>
        <mxCell id="rCrPeNMefCEBVP25DHqw-220" value="" style="edgeStyle=orthogonalEdgeStyle;rounded=0;orthogonalLoop=1;jettySize=auto;html=1;" edge="1" parent="1" source="rCrPeNMefCEBVP25DHqw-190" target="rCrPeNMefCEBVP25DHqw-219">
          <mxGeometry relative="1" as="geometry">
            <mxPoint x="1190" y="770" as="sourcePoint" />
            <mxPoint x="1360" y="844" as="targetPoint" />
          </mxGeometry>
        </mxCell>
        <mxCell id="rCrPeNMefCEBVP25DHqw-219" value="&lt;span style=&quot;font-size: 16px;&quot;&gt;HTTP&lt;/span&gt;" style="html=1;rounded=1;absoluteArcSize=1;arcSize=10;gradientColor=#2B2B2B;" vertex="1" parent="1">
          <mxGeometry x="1220" y="790.45" width="80" height="30" as="geometry" />
        </mxCell>
        <mxCell id="rCrPeNMefCEBVP25DHqw-225" value="" style="endArrow=none;dashed=1;html=1;dashPattern=1 3;strokeWidth=4;rounded=0;" edge="1" parent="1" source="rCrPeNMefCEBVP25DHqw-226" target="rCrPeNMefCEBVP25DHqw-215">
          <mxGeometry width="50" height="50" relative="1" as="geometry">
            <mxPoint x="1290" y="630" as="sourcePoint" />
            <mxPoint x="1460" y="630" as="targetPoint" />
          </mxGeometry>
        </mxCell>
        <mxCell id="rCrPeNMefCEBVP25DHqw-227" value="" style="endArrow=none;dashed=1;html=1;dashPattern=1 3;strokeWidth=4;rounded=0;exitX=1;exitY=0.75;exitDx=0;exitDy=0;" edge="1" parent="1" source="rCrPeNMefCEBVP25DHqw-211" target="rCrPeNMefCEBVP25DHqw-226">
          <mxGeometry width="50" height="50" relative="1" as="geometry">
            <mxPoint x="1290" y="630" as="sourcePoint" />
            <mxPoint x="1460" y="630" as="targetPoint" />
          </mxGeometry>
        </mxCell>
        <mxCell id="rCrPeNMefCEBVP25DHqw-226" value="&lt;span style=&quot;font-size: 16px;&quot;&gt;Feedback&lt;br&gt;to&amp;nbsp;&lt;br&gt;controller&lt;br&gt;&lt;/span&gt;" style="html=1;rounded=1;absoluteArcSize=1;arcSize=10;gradientColor=#2B2B2B;" vertex="1" parent="1">
          <mxGeometry x="1390" y="480" width="80" height="75" as="geometry" />
        </mxCell>
        <mxCell id="rCrPeNMefCEBVP25DHqw-231" value="" style="edgeStyle=orthogonalEdgeStyle;rounded=0;orthogonalLoop=1;jettySize=auto;html=1;" edge="1" parent="1" source="3" target="rCrPeNMefCEBVP25DHqw-230">
          <mxGeometry relative="1" as="geometry">
            <mxPoint x="690" y="850" as="targetPoint" />
            <mxPoint x="410" y="1059" as="sourcePoint" />
          </mxGeometry>
        </mxCell>
        <mxCell id="rCrPeNMefCEBVP25DHqw-265" style="edgeStyle=orthogonalEdgeStyle;rounded=0;orthogonalLoop=1;jettySize=auto;html=1;entryX=0;entryY=0.5;entryDx=0;entryDy=0;entryPerimeter=0;" edge="1" parent="1" source="rCrPeNMefCEBVP25DHqw-230" target="22">
          <mxGeometry relative="1" as="geometry" />
        </mxCell>
        <mxCell id="rCrPeNMefCEBVP25DHqw-230" value="&lt;span style=&quot;font-size: 16px;&quot;&gt;Webhook-Payload&lt;br&gt;JSON&lt;br&gt;&lt;/span&gt;" style="html=1;rounded=1;absoluteArcSize=1;arcSize=10;gradientColor=#2B2B2B;" vertex="1" parent="1">
          <mxGeometry x="460" y="1010.9" width="150" height="100" as="geometry" />
        </mxCell>
        <mxCell id="rCrPeNMefCEBVP25DHqw-244" value="" style="edgeStyle=orthogonalEdgeStyle;rounded=0;orthogonalLoop=1;jettySize=auto;html=1;exitX=0;exitY=0.25;exitDx=0;exitDy=0;exitPerimeter=0;entryX=0.875;entryY=0.018;entryDx=0;entryDy=0;entryPerimeter=0;dashed=1;dashPattern=1 4;strokeWidth=2;" edge="1" parent="1" source="rCrPeNMefCEBVP25DHqw-190" target="rCrPeNMefCEBVP25DHqw-243">
          <mxGeometry relative="1" as="geometry">
            <mxPoint x="1090" y="643" as="sourcePoint" />
            <mxPoint x="855" y="862" as="targetPoint" />
            <Array as="points" />
          </mxGeometry>
        </mxCell>
        <mxCell id="rCrPeNMefCEBVP25DHqw-267" style="edgeStyle=orthogonalEdgeStyle;rounded=0;orthogonalLoop=1;jettySize=auto;html=1;entryX=1;entryY=0.5;entryDx=0;entryDy=0;" edge="1" parent="1" source="rCrPeNMefCEBVP25DHqw-243" target="rCrPeNMefCEBVP25DHqw-263">
          <mxGeometry relative="1" as="geometry" />
        </mxCell>
        <mxCell id="rCrPeNMefCEBVP25DHqw-243" value="&lt;span style=&quot;font-size: 16px;&quot;&gt;WebSocket&lt;br&gt;/Kafka&lt;br&gt;&lt;/span&gt;" style="html=1;rounded=1;absoluteArcSize=1;arcSize=10;gradientColor=#2B2B2B;" vertex="1" parent="1">
          <mxGeometry x="935" y="510" width="90" height="60" as="geometry" />
        </mxCell>
        <mxCell id="rCrPeNMefCEBVP25DHqw-256" value="&lt;font style=&quot;font-size: 14px;&quot;&gt;*First we wil check for your cloud configuration and then provide feedback so another job will start ci / cd proccess&lt;br&gt;&lt;br&gt;&lt;/font&gt;" style="text;strokeColor=none;align=center;fillColor=none;html=1;verticalAlign=middle;whiteSpace=wrap;rounded=0;" vertex="1" parent="1">
          <mxGeometry x="2010" y="460" width="290" height="60" as="geometry" />
        </mxCell>
        <mxCell id="rCrPeNMefCEBVP25DHqw-257" value="&lt;font style=&quot;font-size: 14px;&quot;&gt;*CI will auto-detect dockerfiles and&lt;br&gt;initiate build/ test / securoty&lt;br&gt;then provides feedback for Cd&lt;br&gt;&lt;/font&gt;" style="text;strokeColor=none;align=center;fillColor=none;html=1;verticalAlign=middle;whiteSpace=wrap;rounded=0;" vertex="1" parent="1">
          <mxGeometry x="2010" y="826.9999999999999" width="290" height="60" as="geometry" />
        </mxCell>
        <mxCell id="rCrPeNMefCEBVP25DHqw-272" style="edgeStyle=orthogonalEdgeStyle;rounded=0;orthogonalLoop=1;jettySize=auto;html=1;" edge="1" parent="1" source="rCrPeNMefCEBVP25DHqw-258" target="y9RzSom0SDrukG8L002s-189">
          <mxGeometry relative="1" as="geometry">
            <Array as="points">
              <mxPoint x="1620" y="250" />
              <mxPoint x="1620" y="110" />
            </Array>
          </mxGeometry>
        </mxCell>
        <mxCell id="rCrPeNMefCEBVP25DHqw-274" style="edgeStyle=orthogonalEdgeStyle;rounded=0;orthogonalLoop=1;jettySize=auto;html=1;entryX=0.89;entryY=0.5;entryDx=0;entryDy=0;entryPerimeter=0;" edge="1" parent="1" source="rCrPeNMefCEBVP25DHqw-258" target="rCrPeNMefCEBVP25DHqw-273">
          <mxGeometry relative="1" as="geometry" />
        </mxCell>
        <object placeholders="1" c4Type="persys-k8s-operator" c4Container="persys-k8s-operator" c4Technology="Go/kafla/grpc" c4Description="this is the kubernetes operator for orchestrating other clusters or providing cloud provider support" label="&lt;font style=&quot;font-size: 16px&quot;&gt;&lt;b&gt;%c4Type%&lt;/font&gt;&lt;div&gt;[%c4Container%:&amp;nbsp;%c4Technology%]&lt;/div&gt;&lt;br&gt;&lt;div&gt;&lt;font style=&quot;font-size: 11px&quot;&gt;&lt;font color=&quot;#E6E6E6&quot;&gt;%c4Description%&lt;/font&gt;&lt;/div&gt;" github-repo="https://github.com/miladhzzzz/persys-operator-k8s" id="rCrPeNMefCEBVP25DHqw-258">
          <mxCell style="shape=hexagon;size=-269.99999999999955;perimeter=hexagonPerimeter2;whiteSpace=wrap;html=1;fixedSize=1;rounded=1;labelBackgroundColor=none;fillColor=#23A2D9;fontSize=12;fontColor=#ffffff;align=center;strokeColor=#0E7DAD;metaEdit=1;points=[[0.5,0,0],[1,0.25,0],[1,0.5,0],[1,0.75,0],[0.5,1,0],[0,0.75,0],[0,0.5,0],[0,0.25,0]];resizable=0;" vertex="1" parent="1">
            <mxGeometry x="1710" y="164.54999999999995" width="200" height="170" as="geometry" />
          </mxCell>
        </object>
        <mxCell id="rCrPeNMefCEBVP25DHqw-262" value="&lt;font style=&quot;font-size: 14px;&quot;&gt;*CD will have all the neccesary data to deploy your repo to a multitude of clusters based on your config&lt;br&gt;&lt;/font&gt;" style="text;strokeColor=none;align=center;fillColor=none;html=1;verticalAlign=middle;whiteSpace=wrap;rounded=0;" vertex="1" parent="1">
          <mxGeometry x="2027" y="1025.9" width="290" height="60" as="geometry" />
        </mxCell>
        <mxCell id="rCrPeNMefCEBVP25DHqw-268" style="edgeStyle=orthogonalEdgeStyle;rounded=0;orthogonalLoop=1;jettySize=auto;html=1;entryX=0.884;entryY=-0.025;entryDx=0;entryDy=0;entryPerimeter=0;" edge="1" parent="1" source="rCrPeNMefCEBVP25DHqw-263" target="22">
          <mxGeometry relative="1" as="geometry" />
        </mxCell>
        <mxCell id="rCrPeNMefCEBVP25DHqw-263" value="&lt;font style=&quot;font-size: 18px;&quot;&gt;event-proccessor&lt;br&gt;&lt;/font&gt;" style="whiteSpace=wrap;html=1;fillColor=#23A2D9;strokeColor=#0E7DAD;fontColor=#ffffff;rounded=1;labelBackgroundColor=none;" vertex="1" parent="1">
          <mxGeometry x="710" y="460" width="160" height="60" as="geometry" />
        </mxCell>
        <mxCell id="rCrPeNMefCEBVP25DHqw-271" value="" style="edgeStyle=orthogonalEdgeStyle;rounded=0;orthogonalLoop=1;jettySize=auto;html=1;" edge="1" parent="1" source="11" target="rCrPeNMefCEBVP25DHqw-270">
          <mxGeometry relative="1" as="geometry">
            <mxPoint x="1810" y="1146" as="sourcePoint" />
            <mxPoint x="1810" y="1294" as="targetPoint" />
          </mxGeometry>
        </mxCell>
        <mxCell id="rCrPeNMefCEBVP25DHqw-270" value="&lt;span style=&quot;font-size: 16px;&quot;&gt;k8s-deplyoment&lt;/span&gt;" style="html=1;rounded=1;absoluteArcSize=1;arcSize=10;gradientColor=#2B2B2B;" vertex="1" parent="1">
          <mxGeometry x="1745" y="1200" width="130" height="30" as="geometry" />
        </mxCell>
        <mxCell id="rCrPeNMefCEBVP25DHqw-273" value="&lt;font style=&quot;font-size: 20px&quot;&gt;Cloud-Providers&lt;/font&gt;" style="verticalLabelPosition=bottom;html=1;verticalAlign=top;align=center;strokeColor=none;fillColor=#00BEF2;shape=mxgraph.azure.cloud;fontSize=15;" vertex="1" parent="1">
          <mxGeometry x="1350" y="240" width="180" height="116" as="geometry" />
        </mxCell>
        <mxCell id="rCrPeNMefCEBVP25DHqw-277" value="&lt;font style=&quot;font-size: 18px;&quot;&gt;Notification&lt;br&gt;Service&lt;/font&gt;" style="whiteSpace=wrap;html=1;fillColor=#23A2D9;strokeColor=#0E7DAD;fontColor=#ffffff;rounded=1;labelBackgroundColor=none;" vertex="1" parent="1">
          <mxGeometry x="1000" y="887.0000000000001" width="120" height="60" as="geometry" />
        </mxCell>
        <mxCell id="rCrPeNMefCEBVP25DHqw-281" value="" style="endArrow=classic;startArrow=classic;html=1;rounded=0;edgeStyle=orthogonalEdgeStyle;" edge="1" parent="1" source="147">
          <mxGeometry width="50" height="50" relative="1" as="geometry">
            <mxPoint x="600" y="1530" as="sourcePoint" />
            <mxPoint x="780" y="1030" as="targetPoint" />
            <Array as="points">
              <mxPoint x="780" y="1293" />
            </Array>
          </mxGeometry>
        </mxCell>
      </root>
    </mxGraphModel>
  </diagram>
</mxfile>
